<?xml version="1.0" encoding="UTF-8" standalone="no"?>
<!-- Created with Inkscape (http://www.inkscape.org/) -->

<svg
   version="1.1"
   id="svg2"
   width="709.76001"
   height="566.02667"
   viewBox="0 0 709.76001 566.02667"
   sodipodi:docname="6416.eps"
   xmlns:inkscape="http://www.inkscape.org/namespaces/inkscape"
   xmlns:sodipodi="http://sodipodi.sourceforge.net/DTD/sodipodi-0.dtd"
   xmlns="http://www.w3.org/2000/svg"
   xmlns:svg="http://www.w3.org/2000/svg">
  <defs
     id="defs6" />
  <sodipodi:namedview
     id="namedview4"
     pagecolor="#ffffff"
     bordercolor="#FC137E"
     borderopacity="0.25"
     inkscape:showpageshadow="2"
     inkscape:pageopacity="0.0"
     inkscape:pagecheckerboard="0"
     inkscape:deskcolor="#d1d1d1" />
  <g
     id="g8"
     inkscape:groupmode="layer"
     inkscape:label="ink_ext_XXXXXX"
     transform="matrix(1.3333333,0,0,-1.3333333,0,566.02667)">
    <g
       id="g10"
       transform="scale(0.1)">
      <path
         d="m 1598.83,1923.14 c -14.79,-53.75 -18.88,-175.62 -11.25,-229.37 20,-16.25 85,-31.25 85,-31.25 0,0 32.5,163.75 98.75,302.5 -97.5,51.25 -160.65,1.19 -172.5,-41.88"
         style="fill:#FC713E;fill-opacity:1;fill-rule:nonzero;stroke:none"
         id="path12" />
      <path
         d="m 4330.8,2339.57 c -21.87,-4.32 -41.62,-15.96 -53.22,-39.55 -37.5,-76.25 -127.5,-310 -176.25,-422.5 -28.6,-66 -41.98,-42.65 -45,25 -2.13,47.67 -2.87,115.45 16.25,197.7 46.25,198.94 145,341.05 226.25,331.05 34.19,-4.21 38.46,-45.41 31.97,-91.7 z m -738.22,-318.3 c -38.33,-155 -146.67,-410 -190,-421.67 -41.61,-11.2 7.49,592.38 201.9,582.64 -4.79,-49.38 -8.81,-102.86 -11.9,-160.97 z m -880.71,-53.48 c -54.47,-161.74 -209.58,-657.4 -240.54,-750.27 -40,135 -40,476.25 0,748.75 1.71,11.64 3.51,22.74 5.34,33.59 71.19,21.86 163.74,54.93 257.32,90.07 -7.59,-37 -15.02,-77.57 -22.12,-122.14 z M 1050.91,547.941 C 880.914,314.602 611.328,186.27 539.242,176.27 c -18.133,-2.52 -36.996,7.679 -21.664,40 51.152,107.839 128.656,227.441 218.606,348.66 33.804,-32.18 77.726,-39.68 113.894,-43.66 -5.117,16.21 -16.055,63.902 -22.09,162.839 129.391,162.313 272.982,321.571 397.482,453.511 124.49,-94.82 -15.52,-371.409 -174.56,-589.679 z M 823.828,857.52 c 0.238,41.769 2.258,85.281 5.074,128.921 15.407,-10.382 32.258,-10.91 53.676,11.079 19.641,20.17 91.133,86.12 171.372,163.33 31.95,9.75 66.65,13.17 102.88,5.78 C 1052.46,1068 958.406,976.75 918.828,932.52 c -23.125,-25.848 -56.515,-65.52 -95,-112.508 -0.062,12.078 -0.074,24.547 0,37.508 z m 4408.752,1573.75 -26.67,-18.34 c 0,0 95.97,-89.24 -81.66,-293.33 -49.1,-56.42 -114.14,-109.47 -189.19,-159.31 28.42,355.77 54.19,764.31 54.19,764.31 0,0 -61.38,16.96 -83.34,-5 -60,-60 -181.66,-296.67 -271.66,-610 5,50 48.33,298.33 85,470 36.66,171.67 -11.67,270 -108.34,250 -96.66,-20 -95,-146.67 -95,-146.67 0,0 111.67,166.67 56.67,-120 -55,-286.66 -168.33,-571.66 -215,-648.33 -35,321.67 85,395 85,395 -2.82,10.36 -43.15,30.27 -84.45,31.91 6.97,64.31 -1.25,132.36 -56.8,161.01 -118.75,61.25 -276.25,-5 -332.5,-222.5 -12.01,-46.45 -43.75,-131.25 -43.75,-131.25 0,0 -150,-391.25 -201.25,-462.5 -30,390 67.08,821.66 210.42,983.33 -126.62,83.93 -267.53,50.34 -323.95,-432.83 -52.75,25.95 -145.68,55.11 -201.47,-23 -68.41,-95.77 -137.69,-282.98 -150.42,-432.2 -36.92,-97.58 -118.86,-306.29 -170.83,-379.05 -8.75,228.75 40,506.25 81.25,593.75 -51.25,47.5 -97.5,81.25 -146.25,33.75 -48.75,-47.5 -197.5,-308.75 -242.5,-553.75 -0.8,149.02 41.02,454.67 115.26,675.67 140.86,55.21 253.49,101.83 253.49,101.83 l -22.5,58.75 c -24.74,-14.19 -97.9,-38.55 -194.81,-66.31 34.2,77.31 73.53,134.48 117.31,155.06 0,0 -162.5,103.75 -216.25,0 -20.66,-39.88 -46.86,-102.6 -72.99,-201.46 -81.11,-20.73 -167.45,-41.37 -250.55,-59.58 38.03,123.2 79.79,152.29 79.79,152.29 -75,22.5 -156.25,67.5 -217.5,-97.5 -10.74,-28.94 -19.94,-58.5 -28.05,-88.45 -75.04,-13.8 -140.72,-23.45 -188.2,-26.55 -230,-15 -236.25,120 -236.25,120 0,0 -20,-3.75 -31.25,-6.25 -18.58,-318.84 223.47,-290.16 424.54,-239.26 -19.17,-131.31 -21.74,-266.94 -20.66,-397.62 -42.88,-160.68 -175.55,-445.62 -175.55,-445.62 0,0 23.33,266.67 38.33,382.13 15,115.47 -25,161.2 -70,186.2 -36.45,20.25 -81.68,36.13 -162.23,52.96 -1.55,116.31 -29.89,165.89 -72.77,167.04 -61.66,1.67 -113.33,-100 -100,-186.66 7.26,-47.16 54.48,-61.72 105.69,-65.76 -22.82,-280.65 -131.1,-673.571 -202.35,-735.91 -35,183.75 38.75,565 38.75,565 0,0 -60,48.75 -130,62.5 -20.08,-16.06 -172.33,-154.63 -325.79,-298.15 -36.66,8.53 -71.82,5.65 -101.02,-1.07 83.45,83.02 161.22,165.99 186.81,211.72 58.75,105 72.5,155 13.75,226.25 -58.75,71.25 -158.75,193.75 -306.25,160 -147.502,-33.75 -298.752,-81.25 -582.502,-302.5 -283.75,-221.25 -386.2499,-442.5 -376.2499,-547.5 10,-105 166.2499,-221.25 184.9999,-235 18.75,-13.75 33.75,-18.75 53.75,13.75 0,0 -138.75,73.75 -32.5,278.75 106.25,205 315,458.75 602.5,627.5 287.502,168.75 350.042,74.96 347.502,-22.5 -3.31,-126.72 -231.9,-448.53 -390.502,-570.15 12.363,153.84 25.91,294.43 -4.5,347.65 -53.512,93.64 -148.75,60 -148.75,60 36.25,-83.75 -3.75,-591.25 0,-765 0.57,-26.43 3.289,-49.25 7.692,-69.051 C 579.91,513.371 471.672,370.129 449.039,328.77 407.996,253.77 402.367,214.43 471.328,101.27 520.078,21.2695 572.496,-0.679688 582.578,0.0195313 852.578,18.8203 1130.08,340.02 1246.33,538.77 c 116.25,198.75 211.25,522.5 88.75,645 -12.07,12.07 -24.45,21.94 -36.95,30.07 96.59,100.32 175.15,178.13 216.11,219.1 -43.33,-221.67 -13.55,-426.64 40,-486.729 26.79,-30.051 123.34,-158.27 178.34,-88.27 55,70 140,424.999 175,681.659 5.32,39 9.08,74.37 11.44,106.42 20.1,0.39 38.28,1 51.89,0.25 60,-3.33 75,-30 63.33,-90 -11.66,-60 -40,-180 -76.66,-338.33 -36.67,-158.34 26.66,-236.67 73.33,-279.999 46.67,-43.339 61.68,-26.539 75,5 28.48,67.399 136.51,317.779 190.52,442.879 14.02,-169.77 63.46,-221.19 133.65,-265.8 27.79,-17.67 63.6,-52.9 78.75,-11.25 69.41,190.81 133.95,440.1 169.33,585.38 -8.36,-90.08 -15.39,-190.61 -20.58,-302.88 -5.27,-113.8 67.5,-147.5 130,-172.5 11.25,83.75 77.5,451.25 180,612.5 -22.62,-143.01 -40.07,-266.62 -20,-352.5 17.64,-75.52 64.59,-118.37 158.75,-167.5 43.38,57.13 127.03,226.17 162.32,340.43 42.26,-115.82 184.54,-156.68 184.54,-156.68 0,0 111.89,211.25 129.39,247.5 5,-45 3.75,-58.75 31.25,-77.5 27.5,-18.75 143.75,-86.25 143.75,-86.25 0,0 115.47,225.41 170.6,391.57 0.39,-67.82 8.23,-116.93 18.15,-137.26 10.63,-21.81 155,-76.81 165,-59.31 19.31,33.8 70,125 113.75,272.5 -10,-186.25 165,-218.75 165,-218.75 23.75,37.5 57.5,146.25 131.25,352.5 -13.75,-148.75 81.25,-175 156.25,-181.25 18.75,90 100,377.5 171.25,526.25 -0.82,-96.86 -39.38,-405.02 -74.95,-659.72 C 4516.67,1728.88 4203.51,1621.02 3989.25,1539.6 3655.91,1412.94 1894.24,734.602 1727.58,652.941 1560.91,571.27 1500.91,519.602 1504.24,426.27 c 3.34,-93.329 73.34,-188.329 73.34,-188.329 l 31.66,18.329 c 0,0 -18.2,30.601 -18.35,57.222 -0.23,40.207 85.85,119.449 295.68,236.11 614.09,341.449 1582.68,663.338 2059.34,841.668 238,89.04 544.13,193.87 802.86,299.76 -8.76,-58.78 -16.53,-108.52 -22.44,-143.51 -32.5,-192.5 -118.75,-415 -182.5,-418.75 -63.75,-3.75 -66.25,72.5 -66.25,72.5 l -23.75,-11.25 c 0,0 -21.25,-93.75 163.75,-123.75 185,-30 262.5,282.5 297.5,660 1.15,12.38 2.3,25.04 3.46,37.91 178.26,81.57 312.4,161.76 349.04,233.76 143.01,280.99 -35,433.33 -35,433.33"
         style="fill:#FC713E;fill-opacity:1;fill-rule:nonzero;stroke:none"
         id="path14" />
      <path
         d="m 259.242,3064.6 c 170,346.67 396.672,660 540,711.67 143.336,51.66 148.336,-160 138.336,-373.34 -6.039,-128.89 -35.105,-436.91 -65.316,-722.53 -268.676,-113.43 -552.473,-204.95 -663.02,-207.47 -146.6639,-3.33 -119.9998,245 50,591.67 z M 1567.59,2913.8 c 54.59,33.73 107.42,66.8 157.45,98.45 -6.97,-34.15 -10.39,-64.72 -11.08,-92.21 -44.45,-135.27 -121.24,-394.66 -198.05,-537.11 -14.97,162.06 -21.14,307.24 -21.27,437.13 l -135.04,-32.41 z m 361.49,229.13 c 85.59,55.41 153.39,99.91 195.16,126.67 2.49,1.6 4.92,3.19 7.4,4.78 1.99,-16.31 -1.18,-33.93 -5.74,-49.23 -38.07,-16.35 -64.42,-59.85 -77.9,-127.01 -41.66,-81.99 -115.99,-228.04 -182.09,-356.87 -6.62,87.95 19.77,264.96 63.17,401.66 z m 121.83,185 c 9.78,0 18.35,-0.77 26.05,-2.11 -31.65,-20.47 -64.37,-41.07 -97.86,-61.68 22.31,39.33 46.63,63.79 71.81,63.79 z m 308.86,105.7 c -4.18,-39.68 -10.16,-99.34 -16.9,-175.43 -38.45,-122.12 -99.45,-302.57 -158.63,-421.93 -28.33,190 56.67,383.33 56.67,383.33 0,0 31.67,-1.67 -61.67,11.67 -4.74,0.68 -9.35,1 -13.87,1.11 3.93,23.7 3.31,44.67 -1.46,63.03 71.59,47.19 137.23,93.98 195.86,138.22 z m 912.81,-157.36 c -18.33,-78.34 -78.99,-87.34 -35,-21.67 12.39,18.5 26.97,38.74 43.28,60.27 -3.41,-16.69 -6.26,-29.97 -8.28,-38.6 z M 2595.91,2984.6 c 2.65,31.47 22,72.05 51.25,116.85 -13.5,-55.69 -30.41,-99.33 -51.25,-116.85 z M 275.914,2322.93 c 117.977,-16.61 333.348,64.25 577.731,185.6 -13.364,-120.28 -26.047,-227.7 -36.067,-303.93 -27.133,-206.45 -46.664,-240 -8.629,-268.8 55.504,-42.02 171.965,-42.86 171.965,-42.86 31.576,133.14 52.626,426.54 70.146,718.6 93.44,50.85 188.34,105.13 281.39,160.05 -3.2,-87.15 -4.05,-157.76 -3.21,-198.66 3.34,-161.66 55,-208.33 146.67,-270 91.67,-61.66 96.5,-32.2 107.9,0 36.15,102.04 120.46,371.15 155.13,482.42 28.44,-60.59 73.77,-89.36 96.97,-107.42 45,-35 63.33,-28.56 90,27.48 25.33,53.23 80.41,181.25 111.83,254.78 3.46,-172.35 66.91,-179.94 126.5,-207.26 40,-18.33 63.34,-20 76.67,18.34 16.26,46.75 49.92,143.84 82.19,236.98 -6.76,-96.4 -13.32,-204.13 -18.86,-320.32 -13,-273.33 -15,-265 40,-288.33 55,-23.33 100,-16.69 121.67,-8.33 0,0 -43.33,305 -6.67,556.66 36.67,251.67 228.34,676.67 231.67,580 1.64,-47.5 -3.59,-164.61 -18,-278.77 -35.01,-38.96 -68.2,-78.11 -97,-115.63 -41.2,-53.69 -92.96,-81.15 -61.67,-140.32 43.34,-81.94 143.34,-150.28 220.01,-56.94 60.36,73.48 115.62,247.98 126.08,417.77 43.1,44.25 84.12,84.1 116.46,114.75 -31.71,-283.39 -64.21,-681.61 -64.21,-779.19 0,-125 81.67,-141.67 205,-146.67 -18.33,30 -88.33,158.34 -38.33,533.34 50,375 198.33,608.33 248.33,673.33 32.03,41.65 7.97,-132.19 -18.27,-283.1 -74.84,-84.61 -164.67,-185.43 -155.06,-225.23 11.66,-48.34 135,-238.34 226.66,-53.34 54.67,110.33 79.95,244.02 90.63,355.62 55.27,62.49 112.21,124.86 164.4,181.23 0.34,-31.06 1.37,-62.85 3.31,-95.18 11.66,-195 43.33,-221.67 113.33,-273.33 70,-51.67 88.33,51.66 88.33,51.66 40.38,122.43 87.92,239.13 137.76,345.76 -6.57,-137.88 -11.47,-274.49 -14.42,-354.09 -6.67,-180 -86.67,-438.33 -138.34,-453.33 -51.66,-15 -56.66,53.33 -56.66,53.33 l -38.34,-18.33 c 0,0 85,-208.34 173.34,-185 160.27,42.33 205,291.66 206.66,553.33 1.36,212.47 -10.49,418.22 -23.02,616.62 44.68,79.16 88.46,147.99 128.02,203.38 -86.66,81.67 -181.66,118.33 -205,0 -9.26,-46.95 -17.46,-149.6 -24.42,-267.52 -85.7,-192.38 -199.64,-450.2 -213.91,-445.81 -18.27,5.62 -11.65,206.79 2.86,417.62 23.07,24.49 41.14,43.72 52.14,55.71 73.33,80 36.67,105 -16.67,141.67 -53.33,36.66 -91.66,98.33 -128.33,15 -23.23,-52.8 -39.07,-143.81 -44.61,-252.96 -51.47,-56.29 -108.98,-119.54 -159.8,-175.89 0.92,44.98 -0.46,79.98 -2.26,98.85 -6.66,70 -103.33,80 -153.33,88.33 -50,8.33 -130,-133.33 -230,-473.33 10,185 45,410 95,505 -105,25 -148.33,33.33 -185,-205 -4.72,-30.69 -9.72,-67.7 -14.85,-109.13 -30.26,-27.53 -75.22,-69.13 -126.28,-118.62 -1.22,29.66 -4.06,58.57 -8.87,86.08 -8.84,50.56 -61.67,111.67 -138.33,108.33 -76.67,-3.33 -96.67,-48.33 -148.34,-173.33 -51.67,-125 -107.55,-316.67 -122.11,-383.33 5.66,124.58 21.46,274.94 38.46,397.32 l -88.99,-19.39 132.08,106.99 c 63.61,54.14 109.36,97.2 133.9,121.74 61.66,61.67 43.33,98.34 -3.34,128.34 -46.66,30 -95,61.66 -141.67,18.33 -46.66,-43.33 -91.66,-136.67 -125,-273.33 -63.61,-62.34 -156.92,-132.45 -265.79,-204.94 -27.26,21.69 -65.86,35.7 -112.54,43.27 -110.98,18 -185.52,-54.51 -252.77,-265.92 -87.61,-49.88 -175.84,-98.26 -260.02,-143.36 14.77,346.79 73.12,561.19 104.46,677.61 -80,66.67 -128.34,80 -163.34,-28.33 -56.53,-175.01 -86.71,-485.86 -100.54,-733.44 -81.38,-42.37 -154.74,-79.72 -214.46,-109.89 -20.85,-10.54 -42.32,-21.07 -64.22,-31.56 12.82,222.59 24.24,427.26 37.56,538.22 35,291.67 -120.002,680 -463.338,486.67 -369.851,-208.27 -551.6639,-720 -594.9998,-853.33 -43.32814,-133.34 -65,-290 11.6719,-400 76.6639,-110 124.6089,-199.19 224.9999,-213.34"
         style="fill:#FC713E;fill-opacity:1;fill-rule:nonzero;stroke:none"
         id="path16" />
    </g>
  </g>
</svg>
